<svg xmlns="http://www.w3.org/2000/svg" width="800" height="214" viewBox="0 0 1200 320" role="img"><title>Storyfeed repository banner — dark</title><rect width="1200" height="320" fill="#1B1B1F" /><g transform="translate(24 24) scale(.34)"><g transform="translate(50 125)"><defs><mask id="back" maskUnits="userSpaceOnUse" x="-40" y="-40" width="820" height="800"><rect x="-40" y="-40" width="820" height="800" fill="white" /><rect x="0" y="0" width="460" height="280" rx="50" transform="translate(116 82) skewY(12)" fill="black" stroke="black" stroke-width="32" /><rect x="0" y="0" width="460" height="280" rx="50" transform="translate(0 174) skewY(12)" fill="black" stroke="black" stroke-width="32" /></mask><mask id="middle" maskUnits="userSpaceOnUse" x="-40" y="-40" width="820" height="800"><rect x="-40" y="-40" width="820" height="800" fill="white" /><rect x="0" y="0" width="460" height="280" rx="50" transform="translate(0 174) skewY(12)" fill="black" stroke="black" stroke-width="32" /></mask><mask id="face" maskUnits="userSpaceOnUse" x="-40" y="-40" width="540" height="400"><rect x="-40" y="-40" width="540" height="400" fill="white" /><g fill="black"><circle data-part="actor" transform="translate(94 98) skewY(-12)" cx="0" cy="0" r="37" /><rect data-part="headline" x="167" y="76" width="221" height="38" rx="19.0" /><rect data-part="media-tile" x="167" y="160" width="61" height="61" rx="8" fill="black" /><rect data-part="media-tile" x="247" y="160" width="61" height="61" rx="8" fill="black" /><rect data-part="media-tile" x="327" y="160" width="61" height="61" rx="8" fill="black" /></g></mask></defs><g mask="url(#back)"><rect x="0" y="0" width="460" height="280" rx="50" transform="translate(240 0) skewY(12)" fill="#8EB8BD" /></g><g mask="url(#middle)"><rect x="0" y="0" width="460" height="280" rx="50" transform="translate(116 82) skewY(12)" fill="#438D98" /></g><g transform="translate(0 174) skewY(12)"><rect data-part="front-card" width="460" height="280" rx="50" fill="#17434B" /><g fill="#FFFFFF"><circle data-part="actor" transform="translate(94 98) skewY(-12)" cx="0" cy="0" r="37" fill="#FFFFFF" /><rect data-part="headline" x="167" y="76" width="221" height="38" rx="19.0" fill="#FFFFFF" /></g><rect data-part="media-tile" x="167" y="160" width="61" height="61" rx="8" fill="#FBBF24" /><rect data-part="media-tile" x="247" y="160" width="61" height="61" rx="8" fill="#B65326" /><rect data-part="media-tile" x="327" y="160" width="61" height="61" rx="8" fill="#438D98" /></g></g></g><g fill="#FAF6EF" transform="translate(325 157) scale(0.112 -0.112)"><path transform="translate(0 0)" d="M266 -10Q154 -10 88.0 35.0Q22 80 16 159H150Q155 125 184.5 107.5Q214 90 266 90Q313 90 334.5 103.5Q356 117 356 142Q356 161 343.5 171.5Q331 182 298 189L216 206Q125 225 82.0 263.5Q39 302 39 363Q39 437 96.0 478.5Q153 520 255 520Q356 520 416.0 479.5Q476 439 482 367H348Q344 393 320.0 406.5Q296 420 252 420Q212 420 192.5 408.5Q173 397 173 376Q173 358 189.0 347.5Q205 337 242 329L334 310Q411 294 450.5 250.5Q490 207 490 148Q490 73 431.5 31.5Q373 -10 266 -10Z" /><path transform="translate(504 0)" d="M302 -11Q204 -11 156.5 36.5Q109 84 109 181V624L259 680V176Q259 142 278.0 125.0Q297 108 337 108Q352 108 365.0 111.0Q378 114 391 118V4Q378 -3 354.5 -7.0Q331 -11 302 -11ZM14 396V510H391V396Z" /><path transform="translate(925 0)" d="M302 -10Q218 -10 154.5 23.5Q91 57 55.5 117.5Q20 178 20 257Q20 336 55.5 395.0Q91 454 154.5 487.0Q218 520 302 520Q387 520 450.5 487.0Q514 454 549.0 395.0Q584 336 584 257Q584 178 548.5 117.5Q513 57 449.5 23.5Q386 -10 302 -10ZM302 108Q337 108 365.5 126.0Q394 144 411.0 177.5Q428 211 428 258Q428 327 391.5 364.5Q355 402 302 402Q249 402 212.5 364.0Q176 326 176 258Q176 211 193.0 177.5Q210 144 238.5 126.0Q267 108 302 108Z" /><path transform="translate(1529 0)" d="M60 0V510H207V390H210V0ZM210 266 197 387Q215 452 256.0 486.0Q297 520 358 520Q377 520 386 516V376Q381 378 372.0 378.5Q363 379 350 379Q278 379 244.0 353.5Q210 328 210 266Z" /><path transform="translate(1927 0)" d="M86 -205 227 107 253 150 385 510H545L236 -205ZM194 10 -2 510H160L321 54Z" /><path transform="translate(2470 0)" d="M99 0V544Q99 636 149.0 683.0Q199 730 297 730Q318 730 333.5 728.0Q349 726 364 721V606Q357 609 347.0 610.5Q337 612 323 612Q285 612 267.0 594.0Q249 576 249 542V0ZM14 396V510H353V396Z" /><path transform="translate(2848 0)" d="M300 -10Q215 -10 152.0 23.5Q89 57 54.5 117.0Q20 177 20 255Q20 334 54.5 393.5Q89 453 151.0 486.5Q213 520 295 520Q374 520 432.0 488.0Q490 456 522.0 399.0Q554 342 554 265Q554 249 553.0 235.5Q552 222 550 210H108V309H429L403 291Q403 353 373.5 382.5Q344 412 293 412Q234 412 201.5 372.0Q169 332 169 252Q169 174 201.5 136.0Q234 98 299 98Q335 98 361.0 110.0Q387 122 400 149H541Q516 75 455.5 32.5Q395 -10 300 -10Z" /><path transform="translate(3422 0)" d="M300 -10Q215 -10 152.0 23.5Q89 57 54.5 117.0Q20 177 20 255Q20 334 54.5 393.5Q89 453 151.0 486.5Q213 520 295 520Q374 520 432.0 488.0Q490 456 522.0 399.0Q554 342 554 265Q554 249 553.0 235.5Q552 222 550 210H108V309H429L403 291Q403 353 373.5 382.5Q344 412 293 412Q234 412 201.5 372.0Q169 332 169 252Q169 174 201.5 136.0Q234 98 299 98Q335 98 361.0 110.0Q387 122 400 149H541Q516 75 455.5 32.5Q395 -10 300 -10Z" /><path transform="translate(3996 0)" d="M421 0V113L431 111Q421 56 371.5 23.0Q322 -10 253 -10Q183 -10 131.5 22.5Q80 55 52.0 114.0Q24 173 24 253Q24 334 53.0 394.0Q82 454 134.5 487.0Q187 520 257 520Q330 520 375.5 486.0Q421 452 429 393L418 392V720H568V0ZM301 110Q354 110 387.0 147.5Q420 185 420 255Q420 325 386.5 362.5Q353 400 299 400Q247 400 213.5 362.0Q180 324 180 254Q180 184 213.5 147.0Q247 110 301 110Z" /></g><g fill="#B7B9BC" transform="translate(330 220) scale(0.036 -0.036)"><path transform="translate(0 0)" d="M32.000244140625 0 303.333984375 720H395.332763671875L135.6654052734375 0ZM589.33447265625 0 330.00042724609375 720H427.33251953125L698.666259765625 0ZM169.3336181640625 287.000244140625H554.6663818359375V199.001220703125H169.3336181640625Z" /><path transform="translate(731 0)" d="M284.99981689453125 -10Q211.66668701171875 -10 155.00015258789062 24.333343505859375Q98.3336181640625 58.66668701171875 65.83367919921875 119.00003051757812Q33.333740234375 179.3333740234375 33.333740234375 256.3333740234375Q33.333740234375 333.3333740234375 65.83367919921875 392.66668701171875Q98.3336181640625 452 155.00015258789062 486.0Q211.66668701171875 520 284.3331298828125 520Q344.666259765625 520 392.832763671875 497.1667175292969Q440.999267578125 474.33343505859375 472.16583251953125 433.0001525878906Q503.3323974609375 391.6668701171875 511.9990234375 336.3336181640625H414.33380126953125Q404.00048828125 381.3338623046875 370.5003356933594 408.3341064453125Q337.00018310546875 435.3343505859375 286.3331298828125 435.3343505859375Q241.66619873046875 435.3343505859375 208.83267211914062 413.334228515625Q175.9991455078125 391.3341064453125 157.9990234375 351.00054931640625Q139.9989013671875 310.6669921875 139.9989013671875 256.3333740234375Q139.9989013671875 201.999755859375 157.9990234375 160.99951171875Q175.9991455078125 119.999267578125 209.166015625 97.33245849609375Q242.3328857421875 74.6656494140625 286.99981689453125 74.6656494140625Q336.33349609375 74.6656494140625 370.5003356933594 101.33255004882812Q404.66717529296875 127.99945068359375 415.00048828125 172.99969482421875H512.6657104492188Q503.3323974609375 118.3331298828125 471.4991455078125 76.99984741210938Q439.6658935546875 35.66656494140625 391.8327331542969 12.833282470703125Q343.99957275390625 -10 284.99981689453125 -10Z" /><path transform="translate(1274 0)" d="M289.9996337890625 -9.6666259765625Q200.66656494140625 -9.6666259765625 159.166748046875 31.83319091796875Q117.66693115234375 73.3330078125 117.66693115234375 154.33251953125V627.3334350585938L220.99884033203125 665.9995727539062V153.3326416015625Q220.99884033203125 113.33245849609375 241.9989013671875 94.3323974609375Q262.99896240234375 75.33233642578125 309.66583251953125 75.33233642578125Q327.999267578125 75.33233642578125 341.9992980957031 77.99899291992188Q355.99932861328125 80.6656494140625 366.33258056640625 84.6656494140625V1.333251953125Q355.3326416015625 -3.66668701171875 335.16607666015625 -6.666656494140625Q314.99951171875 -9.6666259765625 289.9996337890625 -9.6666259765625ZM16.00006103515625 426.6676025390625V510H366.33258056640625V426.6676025390625Z" /><path transform="translate(1666 0)" d="M73.333740234375 0V510H176.6656494140625V0ZM67.66705322265625 610.0009765625V726.666259765625H182.33233642578125V610.0009765625Z" /><path transform="translate(1916 0)" d="M219.0006103515625 0 11.333740234375 510H122.33221435546875L291.999267578125 47.333740234375H242.6669921875L411.33404541015625 510H518.33251953125L310.6656494140625 0Z" /><path transform="translate(2446 0)" d="M73.333740234375 0V510H176.6656494140625V0ZM67.66705322265625 610.0009765625V726.666259765625H182.33233642578125V610.0009765625Z" /><path transform="translate(2696 0)" d="M289.9996337890625 -9.6666259765625Q200.66656494140625 -9.6666259765625 159.166748046875 31.83319091796875Q117.66693115234375 73.3330078125 117.66693115234375 154.33251953125V627.3334350585938L220.99884033203125 665.9995727539062V153.3326416015625Q220.99884033203125 113.33245849609375 241.9989013671875 94.3323974609375Q262.99896240234375 75.33233642578125 309.66583251953125 75.33233642578125Q327.999267578125 75.33233642578125 341.9992980957031 77.99899291992188Q355.99932861328125 80.6656494140625 366.33258056640625 84.6656494140625V1.333251953125Q355.3326416015625 -3.66668701171875 335.16607666015625 -6.666656494140625Q314.99951171875 -9.6666259765625 289.9996337890625 -9.6666259765625ZM16.00006103515625 426.6676025390625V510H366.33258056640625V426.6676025390625Z" /><path transform="translate(3088 0)" d="M111.3341064453125 -205 234.33355712890625 75.66571044921875 255.00006103515625 108.6654052734375 410.3341064453125 510H518.33251953125L217.99945068359375 -205ZM229.33441162109375 -0.00030517578125 11.333740234375 510H123.9989013671875L308.9996337890625 50.66656494140625Z" /><path transform="translate(3618 0)" d="" /><path transform="translate(3815 0)" d="M257.33306884765625 -10Q157.33343505859375 -10 98.00030517578125 33.999969482421875Q38.66717529296875 77.99993896484375 31.33380126953125 157.6666259765625H127.3326416015625Q133.666015625 113.66632080078125 167.49948120117188 90.49948120117188Q201.33294677734375 67.3326416015625 258.66644287109375 67.3326416015625Q309.66656494140625 67.3326416015625 336.8334045410156 85.16610717773438Q364.000244140625 102.99957275390625 364.000244140625 135.99981689453125Q364.000244140625 159.6666259765625 348.5001525878906 176.16680908203125Q333.00006103515625 192.6669921875 287.99969482421875 203.6671142578125L205.99969482421875 223.3338623046875Q129.0001220703125 241.66717529296875 91.3336181640625 279.50048828125Q53.6671142578125 317.33380126953125 53.6671142578125 372.3336181640625Q53.6671142578125 441.0001220703125 105.3336181640625 480.50006103515625Q157.0001220703125 520 246.999755859375 520Q335.9993896484375 520 390.6658935546875 479.8333435058594Q445.3323974609375 439.66668701171875 451.99908447265625 368.3333740234375H356.000244140625Q350.00018310546875 404.33367919921875 321.3333740234375 423.5005187988281Q292.66656494140625 442.6673583984375 243.999755859375 442.6673583984375Q197.99957275390625 442.6673583984375 173.49942016601562 426.50054931640625Q148.999267578125 410.333740234375 148.999267578125 380.66680908203125Q148.999267578125 357.33331298828125 167.33267211914062 341.1664733886719Q185.66607666015625 324.9996337890625 228.666259765625 313.66619873046875L312.666015625 292.6661376953125Q385.6658935546875 274.66607666015625 422.8324890136719 234.16616821289062Q459.99908447265625 193.666259765625 459.99908447265625 137.3330078125Q459.99908447265625 67.66650390625 406.4992370605469 28.833251953125Q352.9993896484375 -10 257.33306884765625 -10Z" /><path transform="translate(4298 0)" d="M289.9996337890625 -9.6666259765625Q200.66656494140625 -9.6666259765625 159.166748046875 31.83319091796875Q117.66693115234375 73.3330078125 117.66693115234375 154.33251953125V627.3334350585938L220.99884033203125 665.9995727539062V153.3326416015625Q220.99884033203125 113.33245849609375 241.9989013671875 94.3323974609375Q262.99896240234375 75.33233642578125 309.66583251953125 75.33233642578125Q327.999267578125 75.33233642578125 341.9992980957031 77.99899291992188Q355.99932861328125 80.6656494140625 366.33258056640625 84.6656494140625V1.333251953125Q355.3326416015625 -3.66668701171875 335.16607666015625 -6.666656494140625Q314.99951171875 -9.6666259765625 289.9996337890625 -9.6666259765625ZM16.00006103515625 426.6676025390625V510H366.33258056640625V426.6676025390625Z" /><path transform="translate(4690 0)" d="M73.333740234375 0V510H172.332275390625V383.3331298828125H176.6656494140625V0ZM176.6656494140625 266 163.6656494140625 387Q181.6656494140625 452 225.99908447265625 486.0Q270.33251953125 520 330.66583251953125 520Q353.66595458984375 520 362.66595458984375 516V418.00128173828125Q357.66595458984375 420.00128173828125 348.66595458984375 420.50128173828125Q339.66595458984375 421.00128173828125 326.66595458984375 421.00128173828125Q251.99920654296875 421.00128173828125 214.33242797851562 382.16754150390625Q176.6656494140625 343.33380126953125 176.6656494140625 266Z" /><path transform="translate(5073 0)" d="M292.66644287109375 -10Q215.66668701171875 -10 157.33349609375 24.16668701171875Q99.00030517578125 58.3333740234375 66.16702270507812 118.3333740234375Q33.333740234375 178.3333740234375 33.333740234375 256.3333740234375Q33.333740234375 334.66668701171875 65.83367919921875 394.16668701171875Q98.3336181640625 453.66668701171875 157.00018310546875 486.8333435058594Q215.666748046875 520 292.333251953125 520Q365.999755859375 520 420.3329772949219 488.66668701171875Q474.66619873046875 457.3333740234375 504.3327941894531 401.00006103515625Q533.9993896484375 344.666748046875 533.9993896484375 268.33343505859375Q533.9993896484375 256.33355712890625 533.3327331542969 245.83364868164062Q532.6660766601562 235.333740234375 530.6660766601562 224.00042724609375H102.66650390625V301.66644287109375H457.66754150390625L431.66754150390625 270.9993896484375Q431.66754150390625 353 394.833984375 395.833740234375Q358.00042724609375 438.66748046875 291.6666259765625 438.66748046875Q221.33294677734375 438.66748046875 179.49932861328125 390.3338928222656Q137.66571044921875 342.00030517578125 137.66571044921875 256.0001220703125Q137.66571044921875 169.33319091796875 179.49932861328125 120.33285522460938Q221.33294677734375 71.33251953125 294.9998779296875 71.33251953125Q339.66680908203125 71.33251953125 373.0003662109375 89.66604614257812Q406.33392333984375 107.99957275390625 422.00067138671875 143.66650390625H519.666015625Q494.666015625 72.333251953125 435.4993896484375 31.1666259765625Q376.332763671875 -10 292.66644287109375 -10Z" /><path transform="translate(5640 0)" d="M389.000244140625 0Q384.3336181640625 18.66656494140625 382.50030517578125 41.66650390625Q380.6669921875 64.66644287109375 380.6669921875 98.3331298828125H376.00030517578125V341.33319091796875Q376.00030517578125 390.333740234375 351.50018310546875 414.5006103515625Q327.00006103515625 438.66748046875 274.3330078125 438.66748046875Q222.999267578125 438.66748046875 192.4990234375 418.6672668457031Q161.998779296875 398.66705322265625 156.99884033203125 361.66668701171875H58.00018310546875Q64.666748046875 434.0001220703125 123.0 477.00006103515625Q181.333251953125 520 277.9996337890625 520Q377.99932861328125 520 427.99908447265625 473.666748046875Q477.99884033203125 427.33349609375 477.99884033203125 336.6668701171875V98.3331298828125Q477.99884033203125 75.33319091796875 481.1654968261719 51.16656494140625Q484.3321533203125 26.99993896484375 490.33209228515625 0ZM213.00030517578125 -10Q135.000244140625 -10 89.00021362304688 28.5Q43.00018310546875 67 43.00018310546875 133.00006103515625Q43.00018310546875 201.33331298828125 91.50003051757812 240.49984741210938Q139.9998779296875 279.6663818359375 230.6663818359375 293.999755859375L399.00030517578125 320.99993896484375V248.0003662109375L246.99945068359375 224.33355712890625Q196.33245849609375 216.33349609375 170.66558837890625 197.00006103515625Q144.99871826171875 177.6666259765625 144.99871826171875 141.6663818359375Q144.99871826171875 107.332763671875 168.66555786132812 89.66595458984375Q192.3323974609375 71.9991455078125 236.99951171875 71.9991455078125Q297.333251953125 71.9991455078125 336.6667785644531 100.83258056640625Q376.00030517578125 129.666015625 376.00030517578125 173.66632080078125L389.3336181640625 99.66650390625Q371.333740234375 46.6666259765625 325.3337097167969 18.33331298828125Q279.33367919921875 -10 213.00030517578125 -10Z" /><path transform="translate(6186 0)" d="M73.333740234375 0V510H172.332275390625V390H176.6656494140625V0ZM417.00042724609375 0V333.3336181640625Q417.00042724609375 385.00067138671875 392.8336486816406 409.1675109863281Q368.6668701171875 433.3343505859375 323.6666259765625 433.3343505859375Q282.3330078125 433.3343505859375 248.83279418945312 413.8341979980469Q215.33258056640625 394.33404541015625 195.99911499023438 359.5004577636719Q176.6656494140625 324.6668701171875 176.6656494140625 277.9998779296875L163.6656494140625 397Q189.33233642578125 453.66668701171875 239.83242797851562 486.8333435058594Q290.33251953125 520 353.3323974609375 520Q429.332275390625 520 474.8323059082031 476.0000305175781Q520.3323364257812 432.00006103515625 520.3323364257812 359.99993896484375V0ZM760.6671142578125 0V333.3336181640625Q760.6671142578125 385.00067138671875 736.5003356933594 409.1675109863281Q712.3335571289062 433.3343505859375 667.3333129882812 433.3343505859375Q625.9996948242188 433.3343505859375 592.4994812011719 413.8341979980469Q558.999267578125 394.33404541015625 539.6658020019531 359.5004577636719Q520.3323364257812 324.6668701171875 520.3323364257812 277.9998779296875L499.3323974609375 397Q524.9990844726562 453.66668701171875 577.4991760253906 486.8333435058594Q629.999267578125 520 694.665771484375 520Q771.6655883789062 520 817.8323059082031 475.50006103515625Q863.9990234375 431.0001220703125 863.9990234375 356.66680908203125V0Z" /><path transform="translate(7117 0)" d="M257.33306884765625 -10Q157.33343505859375 -10 98.00030517578125 33.999969482421875Q38.66717529296875 77.99993896484375 31.33380126953125 157.6666259765625H127.3326416015625Q133.666015625 113.66632080078125 167.49948120117188 90.49948120117188Q201.33294677734375 67.3326416015625 258.66644287109375 67.3326416015625Q309.66656494140625 67.3326416015625 336.8334045410156 85.16610717773438Q364.000244140625 102.99957275390625 364.000244140625 135.99981689453125Q364.000244140625 159.6666259765625 348.5001525878906 176.16680908203125Q333.00006103515625 192.6669921875 287.99969482421875 203.6671142578125L205.99969482421875 223.3338623046875Q129.0001220703125 241.66717529296875 91.3336181640625 279.50048828125Q53.6671142578125 317.33380126953125 53.6671142578125 372.3336181640625Q53.6671142578125 441.0001220703125 105.3336181640625 480.50006103515625Q157.0001220703125 520 246.999755859375 520Q335.9993896484375 520 390.6658935546875 479.8333435058594Q445.3323974609375 439.66668701171875 451.99908447265625 368.3333740234375H356.000244140625Q350.00018310546875 404.33367919921875 321.3333740234375 423.5005187988281Q292.66656494140625 442.6673583984375 243.999755859375 442.6673583984375Q197.99957275390625 442.6673583984375 173.49942016601562 426.50054931640625Q148.999267578125 410.333740234375 148.999267578125 380.66680908203125Q148.999267578125 357.33331298828125 167.33267211914062 341.1664733886719Q185.66607666015625 324.9996337890625 228.666259765625 313.66619873046875L312.666015625 292.6661376953125Q385.6658935546875 274.66607666015625 422.8324890136719 234.16616821289062Q459.99908447265625 193.666259765625 459.99908447265625 137.3330078125Q459.99908447265625 67.66650390625 406.4992370605469 28.833251953125Q352.9993896484375 -10 257.33306884765625 -10Z" /><path transform="translate(7600 0)" d="" /><path transform="translate(7797 0)" d="M114.33380126953125 0V569.3341064453125Q114.33380126953125 646.6669921875 158.00027465820312 688.33349609375Q201.666748046875 730 289.66644287109375 730Q309.999755859375 730 322.8330078125 728.0Q335.666259765625 726 345.99945068359375 722.3333740234375V642.0010986328125Q338.99945068359375 644.3344116210938 327.3327331542969 646.1677551269531Q315.666015625 648.0010986328125 301.666015625 648.0010986328125Q258.33251953125 648.0010986328125 237.99911499023438 626.6676635742188Q217.66571044921875 605.334228515625 217.66571044921875 566.000732421875V0ZM16.00006103515625 426.6676025390625V510H334.99945068359375V426.6676025390625Z" /><path transform="translate(8159 0)" d="M295.3331298828125 -10Q217.33331298828125 -10 158.16677856445312 24.500030517578125Q99.000244140625 59.00006103515625 66.1669921875 119.50006103515625Q33.333740234375 180.00006103515625 33.333740234375 257Q33.333740234375 334.6666259765625 66.50033569335938 393.6666259765625Q99.66693115234375 452.6666259765625 158.5001220703125 486.33331298828125Q217.33331298828125 520 295.3331298828125 520Q374.33294677734375 520 433.1661376953125 486.33331298828125Q491.99932861328125 452.6666259765625 524.6659240722656 393.6666259765625Q557.33251953125 334.6666259765625 557.33251953125 257Q557.33251953125 180.00006103515625 524.499267578125 119.50006103515625Q491.666015625 59.00006103515625 432.83282470703125 24.500030517578125Q373.9996337890625 -10 295.3331298828125 -10ZM295.3331298828125 74.6656494140625Q341.66680908203125 74.6656494140625 376.5003356933594 97.66580200195312Q411.3338623046875 120.66595458984375 431.0006103515625 161.83285522460938Q450.6673583984375 202.999755859375 450.6673583984375 258Q450.6673583984375 339.66705322265625 407.50048828125 387.5007019042969Q364.3336181640625 435.3343505859375 295.3331298828125 435.3343505859375Q226.99932861328125 435.3343505859375 183.49911499023438 387.33404541015625Q139.9989013671875 339.333740234375 139.9989013671875 258Q139.9989013671875 202.999755859375 159.6656494140625 161.83285522460938Q179.3323974609375 120.66595458984375 214.499267578125 97.66580200195312Q249.6661376953125 74.6656494140625 295.3331298828125 74.6656494140625Z" /><path transform="translate(8750 0)" d="M73.333740234375 0V510H172.332275390625V383.3331298828125H176.6656494140625V0ZM176.6656494140625 266 163.6656494140625 387Q181.6656494140625 452 225.99908447265625 486.0Q270.33251953125 520 330.66583251953125 520Q353.66595458984375 520 362.66595458984375 516V418.00128173828125Q357.66595458984375 420.00128173828125 348.66595458984375 420.50128173828125Q339.66595458984375 421.00128173828125 326.66595458984375 421.00128173828125Q251.99920654296875 421.00128173828125 214.33242797851562 382.16754150390625Q176.6656494140625 343.33380126953125 176.6656494140625 266Z" /><path transform="translate(9133 0)" d="" /><path transform="translate(9330 0)" d="M74.000732421875 0V720H179.999267578125V0ZM126.0001220703125 0V87.3323974609375H541.999755859375V0Z" /><path transform="translate(9919 0)" d="M389.000244140625 0Q384.3336181640625 18.66656494140625 382.50030517578125 41.66650390625Q380.6669921875 64.66644287109375 380.6669921875 98.3331298828125H376.00030517578125V341.33319091796875Q376.00030517578125 390.333740234375 351.50018310546875 414.5006103515625Q327.00006103515625 438.66748046875 274.3330078125 438.66748046875Q222.999267578125 438.66748046875 192.4990234375 418.6672668457031Q161.998779296875 398.66705322265625 156.99884033203125 361.66668701171875H58.00018310546875Q64.666748046875 434.0001220703125 123.0 477.00006103515625Q181.333251953125 520 277.9996337890625 520Q377.99932861328125 520 427.99908447265625 473.666748046875Q477.99884033203125 427.33349609375 477.99884033203125 336.6668701171875V98.3331298828125Q477.99884033203125 75.33319091796875 481.1654968261719 51.16656494140625Q484.3321533203125 26.99993896484375 490.33209228515625 0ZM213.00030517578125 -10Q135.000244140625 -10 89.00021362304688 28.5Q43.00018310546875 67 43.00018310546875 133.00006103515625Q43.00018310546875 201.33331298828125 91.50003051757812 240.49984741210938Q139.9998779296875 279.6663818359375 230.6663818359375 293.999755859375L399.00030517578125 320.99993896484375V248.0003662109375L246.99945068359375 224.33355712890625Q196.33245849609375 216.33349609375 170.66558837890625 197.00006103515625Q144.99871826171875 177.6666259765625 144.99871826171875 141.6663818359375Q144.99871826171875 107.332763671875 168.66555786132812 89.66595458984375Q192.3323974609375 71.9991455078125 236.99951171875 71.9991455078125Q297.333251953125 71.9991455078125 336.6667785644531 100.83258056640625Q376.00030517578125 129.666015625 376.00030517578125 173.66632080078125L389.3336181640625 99.66650390625Q371.333740234375 46.6666259765625 325.3337097167969 18.33331298828125Q279.33367919921875 -10 213.00030517578125 -10Z" /><path transform="translate(10465 0)" d="M73.333740234375 0V510H172.332275390625V383.3331298828125H176.6656494140625V0ZM176.6656494140625 266 163.6656494140625 387Q181.6656494140625 452 225.99908447265625 486.0Q270.33251953125 520 330.66583251953125 520Q353.66595458984375 520 362.66595458984375 516V418.00128173828125Q357.66595458984375 420.00128173828125 348.66595458984375 420.50128173828125Q339.66595458984375 421.00128173828125 326.66595458984375 421.00128173828125Q251.99920654296875 421.00128173828125 214.33242797851562 382.16754150390625Q176.6656494140625 343.33380126953125 176.6656494140625 266Z" /><path transform="translate(10848 0)" d="M389.000244140625 0Q384.3336181640625 18.66656494140625 382.50030517578125 41.66650390625Q380.6669921875 64.66644287109375 380.6669921875 98.3331298828125H376.00030517578125V341.33319091796875Q376.00030517578125 390.333740234375 351.50018310546875 414.5006103515625Q327.00006103515625 438.66748046875 274.3330078125 438.66748046875Q222.999267578125 438.66748046875 192.4990234375 418.6672668457031Q161.998779296875 398.66705322265625 156.99884033203125 361.66668701171875H58.00018310546875Q64.666748046875 434.0001220703125 123.0 477.00006103515625Q181.333251953125 520 277.9996337890625 520Q377.99932861328125 520 427.99908447265625 473.666748046875Q477.99884033203125 427.33349609375 477.99884033203125 336.6668701171875V98.3331298828125Q477.99884033203125 75.33319091796875 481.1654968261719 51.16656494140625Q484.3321533203125 26.99993896484375 490.33209228515625 0ZM213.00030517578125 -10Q135.000244140625 -10 89.00021362304688 28.5Q43.00018310546875 67 43.00018310546875 133.00006103515625Q43.00018310546875 201.33331298828125 91.50003051757812 240.49984741210938Q139.9998779296875 279.6663818359375 230.6663818359375 293.999755859375L399.00030517578125 320.99993896484375V248.0003662109375L246.99945068359375 224.33355712890625Q196.33245849609375 216.33349609375 170.66558837890625 197.00006103515625Q144.99871826171875 177.6666259765625 144.99871826171875 141.6663818359375Q144.99871826171875 107.332763671875 168.66555786132812 89.66595458984375Q192.3323974609375 71.9991455078125 236.99951171875 71.9991455078125Q297.333251953125 71.9991455078125 336.6667785644531 100.83258056640625Q376.00030517578125 129.666015625 376.00030517578125 173.66632080078125L389.3336181640625 99.66650390625Q371.333740234375 46.6666259765625 325.3337097167969 18.33331298828125Q279.33367919921875 -10 213.00030517578125 -10Z" /><path transform="translate(11394 0)" d="M219.0006103515625 0 11.333740234375 510H122.33221435546875L291.999267578125 47.333740234375H242.6669921875L411.33404541015625 510H518.33251953125L310.6656494140625 0Z" /><path transform="translate(11924 0)" d="M292.66644287109375 -10Q215.66668701171875 -10 157.33349609375 24.16668701171875Q99.00030517578125 58.3333740234375 66.16702270507812 118.3333740234375Q33.333740234375 178.3333740234375 33.333740234375 256.3333740234375Q33.333740234375 334.66668701171875 65.83367919921875 394.16668701171875Q98.3336181640625 453.66668701171875 157.00018310546875 486.8333435058594Q215.666748046875 520 292.333251953125 520Q365.999755859375 520 420.3329772949219 488.66668701171875Q474.66619873046875 457.3333740234375 504.3327941894531 401.00006103515625Q533.9993896484375 344.666748046875 533.9993896484375 268.33343505859375Q533.9993896484375 256.33355712890625 533.3327331542969 245.83364868164062Q532.6660766601562 235.333740234375 530.6660766601562 224.00042724609375H102.66650390625V301.66644287109375H457.66754150390625L431.66754150390625 270.9993896484375Q431.66754150390625 353 394.833984375 395.833740234375Q358.00042724609375 438.66748046875 291.6666259765625 438.66748046875Q221.33294677734375 438.66748046875 179.49932861328125 390.3338928222656Q137.66571044921875 342.00030517578125 137.66571044921875 256.0001220703125Q137.66571044921875 169.33319091796875 179.49932861328125 120.33285522460938Q221.33294677734375 71.33251953125 294.9998779296875 71.33251953125Q339.66680908203125 71.33251953125 373.0003662109375 89.66604614257812Q406.33392333984375 107.99957275390625 422.00067138671875 143.66650390625H519.666015625Q494.666015625 72.333251953125 435.4993896484375 31.1666259765625Q376.332763671875 -10 292.66644287109375 -10Z" /><path transform="translate(12491 0)" d="M73.333740234375 0V720H176.6656494140625V0Z" /></g></svg>
